<?xml version="1.0" encoding="utf-8"?>
<!-- Generator: Adobe Illustrator 16.0.0, SVG Export Plug-In . SVG Version: 6.00 Build 0)  -->
<!DOCTYPE svg PUBLIC "-//W3C//DTD SVG 1.1//EN" "http://www.w3.org/Graphics/SVG/1.1/DTD/svg11.dtd">
<svg version="1.1" id="Layer_1" xmlns="http://www.w3.org/2000/svg" xmlns:xlink="http://www.w3.org/1999/xlink" x="0px" y="0px"
	 width="141.73px" height="141.73px" viewBox="0 0 141.73 141.73" enable-background="new 0 0 141.73 141.73" xml:space="preserve">
<rect width="141.73" height="141.73" fill="#242938" rx="30"/>
<g>
	<g opacity="0.3">
		<path d="M117.726,21.413c-0.016-0.017-0.035-0.027-0.053-0.042C96.307,3.014,66.118-0.243,41.136,12.523
			C16.168,25.282,1.956,53.733,5.382,81.306c2.392,19.268,13.129,36.165,28.466,47.021c0,0,42.277-37.776,53.504-51.181
			c10.53-12.582,33.52-52.764,33.52-52.764C119.861,23.365,118.814,22.374,117.726,21.413z"/>
	</g>
	<g>
		<path fill="#E74A99" d="M115.726,18.413c-0.016-0.017-0.035-0.027-0.053-0.042C94.307,0.014,64.118-3.243,39.136,9.523
			C14.168,22.282-0.044,50.733,3.382,78.306c2.392,19.268,13.129,36.165,28.466,47.021c0,0,42.277-37.776,53.504-51.181
			c10.53-12.582,33.52-52.764,33.52-52.764C117.861,20.365,116.814,19.374,115.726,18.413z"/>
	</g>
</g>
<g>
	<g opacity="0.3">
		<path d="M33.849,128.327c7.067,5.001,15.11,8.726,23.765,10.801c27.076,6.487,56.27-5.293,71.759-28.261
			c18.256-27.077,14.241-63.649-8.5-86.485c0,0-32.464,38.778-43.287,51.706C66.65,89.146,33.849,128.327,33.849,128.327z"/>
	</g>
	<g>
		<path fill="#27AAE1" d="M31.849,125.327c7.067,5.001,15.11,8.726,23.765,10.801c27.076,6.487,56.27-5.293,71.759-28.261
			c18.256-27.077,14.241-63.649-8.5-86.485c0,0-32.464,38.778-43.287,51.706C64.65,86.146,31.849,125.327,31.849,125.327z"/>
	</g>
</g>
<g>
	<g>
		<path fill="#FFFFFF" d="M73.043,52.8c0,0-6.48-14.187-19.968-10.958c-13.486,3.23-41.652,30.792,17.853,65.083H70.88
			c59.504-34.291,31.34-61.852,17.853-65.083C75.245,38.613,68.766,52.8,68.766,52.8H73.043z"/>
	</g>
</g>
</svg>
